<svg width="148" height="90" viewBox="0 0 148 90" fill="none" xmlns="http://www.w3.org/2000/svg">
<path d="M12.7749 34.3036H23.7166L24.0884 35.419H11.9782L12.7749 34.3036ZM37.792 52.3626C37.9336 52.3626 38.0044 52.4689 38.0044 52.6813C38.0044 52.8938 37.9336 53 37.792 53C37.1192 53 36.0746 52.9646 34.6582 52.8938C33.2418 52.823 32.2149 52.7875 31.5776 52.7875C30.7985 52.7875 29.8071 52.823 28.6031 52.8938C27.47 52.9646 26.6025 53 26.0005 53C25.8589 53 25.7881 52.8938 25.7881 52.6813C25.7881 52.4689 25.8589 52.3626 26.0005 52.3626C27.3461 52.3626 28.3022 52.2387 28.8687 51.9908C29.4707 51.743 29.7717 51.3003 29.7717 50.663C29.7717 50.1318 29.5592 49.3882 29.1343 48.4321L17.3428 23.5213L18.6707 21.8748L8.36641 46.2544C7.87067 47.4584 7.62281 48.4498 7.62281 49.2289C7.62281 51.318 9.35789 52.3626 12.8281 52.3626C13.0051 52.3626 13.0936 52.4689 13.0936 52.6813C13.0936 52.8938 13.0051 53 12.8281 53C12.1907 53 11.27 52.9646 10.0661 52.8938C8.72051 52.823 7.55199 52.7875 6.56051 52.7875C5.63985 52.7875 4.57756 52.823 3.37362 52.8938C2.31133 52.9646 1.42608 53 0.717887 53C0.540838 53 0.452313 52.8938 0.452313 52.6813C0.452313 52.4689 0.540838 52.3626 0.717887 52.3626C1.70936 52.3626 2.54149 52.1856 3.21428 51.8315C3.92248 51.442 4.57756 50.7869 5.17953 49.8662C5.8169 48.9102 6.5074 47.5469 7.251 45.7764L18.4582 19.3252C18.529 19.219 18.653 19.1659 18.83 19.1659C19.0071 19.1659 19.1133 19.219 19.1487 19.3252L31.6838 45.7233C32.8877 48.3436 33.9146 50.1141 34.7644 51.0348C35.6143 51.92 36.6235 52.3626 37.792 52.3626ZM66.6975 25.6459C66.6975 22.1757 65.1572 20.4407 62.0766 20.4407C61.9703 20.4407 61.9172 20.3344 61.9172 20.122C61.9172 19.9095 61.9703 19.8033 62.0766 19.8033L64.3605 19.8564C65.6352 19.9272 66.6444 19.9626 67.388 19.9626C67.99 19.9626 68.8575 19.9272 69.9907 19.8564L72.2215 19.8033C72.2923 19.8033 72.3277 19.9095 72.3277 20.122C72.3277 20.3344 72.2923 20.4407 72.2215 20.4407C69.3887 20.4407 67.9723 22.1757 67.9723 25.6459V40.7305C67.9723 44.8026 66.8392 47.9895 64.573 50.2911C62.3067 52.5574 59.2615 53.6905 55.4372 53.6905C52.8169 53.6905 50.5152 53.177 48.5323 52.1502C46.5848 51.1233 45.0621 49.6715 43.9644 47.7948C42.9021 45.8826 42.371 43.6518 42.371 41.1023V24.1056C42.371 23.0433 42.2648 22.2643 42.0523 21.7685C41.8398 21.2728 41.4149 20.9364 40.7775 20.7593C40.1756 20.5469 39.2018 20.4407 37.8562 20.4407C37.7854 20.4407 37.75 20.3344 37.75 20.122C37.75 19.9095 37.7854 19.8033 37.8562 19.8033L40.4589 19.8564C41.9461 19.9272 43.15 19.9626 44.0707 19.9626C45.0267 19.9626 46.2838 19.9272 47.8418 19.8564L50.2851 19.8033C50.3913 19.8033 50.4444 19.9095 50.4444 20.122C50.4444 20.3344 50.3913 20.4407 50.2851 20.4407C48.9749 20.4407 48.0011 20.5469 47.3638 20.7593C46.7618 20.9718 46.3546 21.3436 46.1421 21.8748C45.9297 22.3705 45.8234 23.1495 45.8234 24.2118V39.2433C45.8234 43.4216 46.7618 46.6085 48.6385 48.8039C50.5152 50.9993 53.171 52.097 56.6057 52.097C59.7926 52.097 62.2713 51.1056 64.0418 49.1226C65.8123 47.1043 66.6975 44.3246 66.6975 40.7836V25.6459ZM103.052 53C102.167 53 100.468 51.442 97.9534 48.3259C95.4747 45.1744 92.4826 40.8544 88.977 35.3659L91.9515 34.4098C95.0321 38.9777 97.5993 42.5541 99.6531 45.139C101.742 47.6885 103.584 49.5298 105.177 50.663C106.77 51.7961 108.329 52.3626 109.851 52.3626C109.957 52.3626 110.01 52.4689 110.01 52.6813C110.01 52.8938 109.957 53 109.851 53H103.052ZM88.6052 19.6439C91.4734 19.6439 93.6865 20.2282 95.2446 21.3967C96.8026 22.5652 97.5816 24.1941 97.5816 26.2833C97.5816 28.0184 97.0682 29.6472 96.0413 31.1698C95.0144 32.6925 93.6334 33.9141 91.8983 34.8348C90.1987 35.72 88.3574 36.1626 86.3744 36.1626C85.7016 36.1626 84.9049 36.1272 83.9842 36.0564V48.6977C83.9842 49.7954 84.0905 50.5921 84.3029 51.0879C84.5154 51.5836 84.9226 51.92 85.5246 52.097C86.1619 52.2741 87.1534 52.3626 88.499 52.3626C88.6052 52.3626 88.6583 52.4689 88.6583 52.6813C88.6583 52.8938 88.6052 53 88.499 53C87.4013 53 86.5337 52.9823 85.8964 52.9469L82.2315 52.8938L78.6196 52.9469C77.9823 52.9823 77.0793 53 75.9108 53C75.84 53 75.8046 52.8938 75.8046 52.6813C75.8046 52.4689 75.84 52.3626 75.9108 52.3626C77.2564 52.3626 78.2478 52.2741 78.8852 52.097C79.5226 51.8846 79.9652 51.5305 80.2131 51.0348C80.461 50.539 80.5849 49.76 80.5849 48.6977V24.1056C80.5849 23.0433 80.461 22.2643 80.2131 21.7685C80.0006 21.2728 79.5757 20.9364 78.9383 20.7593C78.3364 20.5469 77.3626 20.4407 76.017 20.4407C75.9108 20.4407 75.8577 20.3344 75.8577 20.122C75.8577 19.9095 75.9108 19.8033 76.017 19.8033L78.6196 19.8564C80.1069 19.9272 81.3108 19.9626 82.2315 19.9626C82.8688 19.9626 83.4708 19.9449 84.0374 19.9095C84.6039 19.8741 85.0996 19.8387 85.5246 19.8033C86.6577 19.697 87.6846 19.6439 88.6052 19.6439ZM93.9698 28.1423C93.9698 23.0079 91.8098 20.4407 87.4898 20.4407C86.5337 20.4407 85.8078 20.5292 85.3121 20.7062C84.8518 20.8479 84.5154 21.1843 84.3029 21.7154C84.0905 22.2111 83.9842 23.0433 83.9842 24.2118V34.7285C84.8341 34.8702 85.8787 34.941 87.118 34.941C89.5613 34.941 91.3141 34.4275 92.3764 33.4007C93.4387 32.3384 93.9698 30.5856 93.9698 28.1423ZM121.699 34.3036H132.641L133.013 35.419H120.903L121.699 34.3036ZM146.716 52.3626C146.858 52.3626 146.929 52.4689 146.929 52.6813C146.929 52.8938 146.858 53 146.716 53C146.044 53 144.999 52.9646 143.583 52.8938C142.166 52.823 141.139 52.7875 140.502 52.7875C139.723 52.7875 138.732 52.823 137.528 52.8938C136.394 52.9646 135.527 53 134.925 53C134.783 53 134.712 52.8938 134.712 52.6813C134.712 52.4689 134.783 52.3626 134.925 52.3626C136.271 52.3626 137.227 52.2387 137.793 51.9908C138.395 51.743 138.696 51.3003 138.696 50.663C138.696 50.1318 138.484 49.3882 138.059 48.4321L126.267 23.5213L127.595 21.8748L117.291 46.2544C116.795 47.4584 116.547 48.4498 116.547 49.2289C116.547 51.318 118.282 52.3626 121.752 52.3626C121.93 52.3626 122.018 52.4689 122.018 52.6813C122.018 52.8938 121.93 53 121.752 53C121.115 53 120.194 52.9646 118.991 52.8938C117.645 52.823 116.476 52.7875 115.485 52.7875C114.564 52.7875 113.502 52.823 112.298 52.8938C111.236 52.9646 110.351 53 109.642 53C109.465 53 109.377 52.8938 109.377 52.6813C109.377 52.4689 109.465 52.3626 109.642 52.3626C110.634 52.3626 111.466 52.1856 112.139 51.8315C112.847 51.442 113.502 50.7869 114.104 49.8662C114.741 48.9102 115.432 47.5469 116.175 45.7764L127.383 19.3252C127.453 19.219 127.577 19.1659 127.754 19.1659C127.932 19.1659 128.038 19.219 128.073 19.3252L140.608 45.7233C141.812 48.3436 142.839 50.1141 143.689 51.0348C144.539 51.92 145.548 52.3626 146.716 52.3626Z" fill="#FFEBA9"/>
<path d="M121.294 52.0085H132.236L132.608 53.1239H120.497L121.294 52.0085ZM146.311 70.0675C146.453 70.0675 146.524 70.1738 146.524 70.3862C146.524 70.5987 146.453 70.7049 146.311 70.7049C145.638 70.7049 144.594 70.6695 143.177 70.5987C141.761 70.5279 140.734 70.4925 140.097 70.4925C139.318 70.4925 138.326 70.5279 137.122 70.5987C135.989 70.6695 135.122 70.7049 134.52 70.7049C134.378 70.7049 134.307 70.5987 134.307 70.3862C134.307 70.1738 134.378 70.0675 134.52 70.0675C135.865 70.0675 136.821 69.9436 137.388 69.6957C137.99 69.4479 138.291 69.0052 138.291 68.3679C138.291 67.8367 138.078 67.0931 137.654 66.137L125.862 41.2262L127.19 39.5797L116.886 63.9593C116.39 65.1633 116.142 66.1547 116.142 66.9338C116.142 69.0229 117.877 70.0675 121.347 70.0675C121.524 70.0675 121.613 70.1738 121.613 70.3862C121.613 70.5987 121.524 70.7049 121.347 70.7049C120.71 70.7049 119.789 70.6695 118.585 70.5987C117.24 70.5279 116.071 70.4925 115.08 70.4925C114.159 70.4925 113.097 70.5279 111.893 70.5987C110.831 70.6695 109.945 70.7049 109.237 70.7049C109.06 70.7049 108.972 70.5987 108.972 70.3862C108.972 70.1738 109.06 70.0675 109.237 70.0675C110.229 70.0675 111.061 69.8905 111.734 69.5364C112.442 69.1469 113.097 68.4918 113.699 67.5711C114.336 66.6151 115.027 65.2518 115.77 63.4813L126.977 37.0302C127.048 36.9239 127.172 36.8708 127.349 36.8708C127.526 36.8708 127.633 36.9239 127.668 37.0302L140.203 63.4282C141.407 66.0485 142.434 67.819 143.284 68.7397C144.134 69.6249 145.143 70.0675 146.311 70.0675Z" fill="#FFEBA9"/>
<path d="M0 64.1803H147.548" stroke="#FFEBA9" stroke-width="1.47541"/>
<path d="M4.59427 79.0788C4.59427 79.4143 4.62673 79.6577 4.69165 79.8092C4.75657 79.9606 4.881 80.0634 5.06493 80.1175C5.25968 80.1716 5.56263 80.1987 5.97378 80.1987C6.00624 80.1987 6.02247 80.2311 6.02247 80.2961C6.02247 80.361 6.00624 80.3934 5.97378 80.3934C5.64919 80.3934 5.38952 80.388 5.19477 80.3772L4.04247 80.361L2.92263 80.3772C2.72788 80.388 2.4628 80.3934 2.12739 80.3934C2.09493 80.3934 2.0787 80.361 2.0787 80.2961C2.0787 80.2311 2.09493 80.1987 2.12739 80.1987C2.53854 80.1987 2.83608 80.1716 3.02001 80.1175C3.21477 80.0634 3.3446 79.9606 3.40952 79.8092C3.48526 79.6469 3.52313 79.4034 3.52313 79.0788V71.5646C3.52313 71.24 3.48526 71.002 3.40952 70.8505C3.3446 70.699 3.21477 70.5962 3.02001 70.5421C2.83608 70.4772 2.53854 70.4447 2.12739 70.4447C2.09493 70.4447 2.0787 70.4123 2.0787 70.3474C2.0787 70.2824 2.09493 70.25 2.12739 70.25L2.92263 70.2662C3.37706 70.2879 3.75034 70.2987 4.04247 70.2987C4.36706 70.2987 4.75657 70.2879 5.211 70.2662L5.97378 70.25C6.00624 70.25 6.02247 70.2824 6.02247 70.3474C6.02247 70.4123 6.00624 70.4447 5.97378 70.4447C5.57345 70.4447 5.27591 70.4772 5.08116 70.5421C4.8864 70.607 4.75657 70.7206 4.69165 70.8829C4.62673 71.0344 4.59427 71.2724 4.59427 71.597V79.0788ZM9.41173 73.009C9.00058 73.009 8.67599 73.0685 8.43796 73.1875C8.19993 73.2957 8.01058 73.4851 7.86993 73.7556C7.74009 74.0261 7.63731 74.4102 7.56157 74.9079C7.56157 74.9295 7.52911 74.9403 7.46419 74.9403C7.41009 74.9403 7.38304 74.9295 7.38304 74.9079C7.4155 74.659 7.45337 74.2587 7.49665 73.7069C7.53993 73.1551 7.56157 72.7331 7.56157 72.441C7.56157 72.3869 7.59403 72.3598 7.65894 72.3598C7.72386 72.3598 7.75632 72.3869 7.75632 72.441C7.75632 72.5816 7.83747 72.6736 7.99976 72.7169C8.16206 72.7493 8.36222 72.7656 8.60026 72.7656C9.55239 72.7872 10.3693 72.798 11.0509 72.798L12.4629 72.7818C12.6576 72.771 12.9119 72.7656 13.2257 72.7656C13.6152 72.7656 13.9019 72.7439 14.0858 72.7006C14.2698 72.6465 14.3888 72.5383 14.4429 72.3761C14.4645 72.3436 14.5024 72.3274 14.5565 72.3274C14.6106 72.3274 14.6376 72.3436 14.6376 72.3761C14.5727 73.5446 14.5403 74.3885 14.5403 74.9079C14.5403 74.9295 14.5078 74.9403 14.4429 74.9403C14.3888 74.9403 14.3617 74.9295 14.3617 74.9079C14.3509 74.421 14.2914 74.0423 14.1832 73.7718C14.0858 73.5013 13.9181 73.3065 13.6801 73.1875C13.4421 73.0685 13.1121 73.009 12.6901 73.009C12.2248 73.009 11.9111 73.0847 11.7488 73.2362C11.5973 73.3769 11.5216 73.669 11.5216 74.1126V79.0788C11.5216 79.4143 11.554 79.6577 11.6189 79.8092C11.6839 79.9606 11.8083 80.0634 11.9922 80.1175C12.187 80.1716 12.4953 80.1987 12.9173 80.1987C12.9498 80.1987 12.966 80.2311 12.966 80.2961C12.966 80.361 12.9498 80.3934 12.9173 80.3934C12.5819 80.3934 12.3222 80.388 12.1383 80.3772L11.0022 80.361L9.91485 80.3772C9.72009 80.388 9.4496 80.3934 9.10337 80.3934C9.08173 80.3934 9.07091 80.361 9.07091 80.2961C9.07091 80.2311 9.08173 80.1987 9.10337 80.1987C9.51452 80.1987 9.81747 80.1716 10.0122 80.1175C10.207 80.0634 10.3368 79.9606 10.4017 79.8092C10.4775 79.6469 10.5153 79.4034 10.5153 79.0788V74.0802C10.5153 73.7664 10.4883 73.5392 10.4342 73.3985C10.3909 73.247 10.2935 73.1443 10.1421 73.0902C9.99058 73.0361 9.74714 73.009 9.41173 73.009ZM17.7495 76.3685H20.7032L20.8168 76.6606H17.4898L17.7495 76.3685ZM23.7057 80.1987C23.749 80.1987 23.7706 80.2311 23.7706 80.2961C23.7706 80.361 23.749 80.3934 23.7057 80.3934C23.5109 80.3934 23.1972 80.3826 22.7644 80.361C22.3316 80.3393 22.0178 80.3285 21.8231 80.3285C21.65 80.3285 21.4228 80.3393 21.1414 80.361C20.8601 80.3826 20.6437 80.3934 20.4923 80.3934C20.449 80.3934 20.4273 80.361 20.4273 80.2961C20.4273 80.2311 20.449 80.1987 20.4923 80.1987C20.7844 80.1987 20.9954 80.1662 21.1252 80.1013C21.2659 80.0256 21.3362 79.9011 21.3362 79.728C21.3362 79.5765 21.2659 79.3439 21.1252 79.0302L18.6583 73.7069L19.0803 73.3498L17.0516 78.3972C16.8785 78.8084 16.7919 79.1492 16.7919 79.4197C16.7919 79.701 16.8893 79.9011 17.0841 80.0202C17.2788 80.1392 17.5764 80.1987 17.9767 80.1987C18.0308 80.1987 18.0578 80.2311 18.0578 80.2961C18.0578 80.361 18.0308 80.3934 17.9767 80.3934C17.8144 80.3934 17.5926 80.3826 17.3113 80.361C17.0083 80.3393 16.727 80.3285 16.4673 80.3285C16.1968 80.3285 15.8777 80.3393 15.5098 80.361C15.1852 80.3826 14.9255 80.3934 14.7308 80.3934C14.6767 80.3934 14.6496 80.361 14.6496 80.2961C14.6496 80.2311 14.6767 80.1987 14.7308 80.1987C15.0662 80.1987 15.3313 80.1554 15.526 80.0688C15.7208 79.9715 15.8993 79.7875 16.0616 79.517C16.2347 79.2465 16.4403 78.8246 16.6783 78.2511L19.0154 72.5546C19.037 72.5113 19.0695 72.4897 19.1127 72.4897C19.156 72.4897 19.1831 72.5113 19.1939 72.5546L21.8068 78.17C22.0882 78.7759 22.31 79.2141 22.4723 79.4846C22.6454 79.7551 22.8185 79.9444 22.9916 80.0526C23.1755 80.15 23.4136 80.1987 23.7057 80.1987ZM26.7308 79.0139C26.7308 79.3277 26.7579 79.5603 26.812 79.7118C26.8769 79.8633 26.9905 79.9715 27.1528 80.0364C27.3259 80.1013 27.5802 80.1338 27.9156 80.1338H29.0029C29.5656 80.1338 30.0146 79.9552 30.35 79.5982C30.6962 79.2411 30.9288 78.7488 31.0479 78.1213C31.0479 78.0997 31.0695 78.0888 31.1128 78.0888C31.1452 78.0888 31.1723 78.0943 31.1939 78.1051C31.2264 78.1159 31.2426 78.1321 31.2426 78.1538C31.1669 78.6515 31.129 79.3169 31.129 80.15C31.129 80.2365 31.1074 80.3015 31.0641 80.3447C31.0316 80.3772 30.9721 80.3934 30.8856 80.3934H24.5398C24.5182 80.3934 24.5074 80.361 24.5074 80.2961C24.5074 80.2311 24.5182 80.1987 24.5398 80.1987C24.8969 80.1987 25.1566 80.1716 25.3188 80.1175C25.4811 80.0634 25.5893 79.9606 25.6434 79.8092C25.6975 79.6469 25.7246 79.4034 25.7246 79.0788V74.1126C25.7246 73.788 25.6921 73.55 25.6272 73.3985C25.5731 73.247 25.4649 73.1443 25.3026 73.0902C25.1403 73.0252 24.8861 72.9928 24.5398 72.9928C24.5182 72.9928 24.5074 72.9603 24.5074 72.8954C24.5074 72.8305 24.5182 72.798 24.5398 72.798L25.2702 72.8143C25.6813 72.8359 26.0005 72.8467 26.2277 72.8467C26.4982 72.8467 26.839 72.8359 27.2502 72.8143L27.9318 72.798C27.9643 72.798 27.9805 72.8305 27.9805 72.8954C27.9805 72.9603 27.9643 72.9928 27.9318 72.9928C27.5747 72.9928 27.3151 73.0252 27.1528 73.0902C26.9905 73.1443 26.8769 73.2524 26.812 73.4147C26.7579 73.5662 26.7308 73.8043 26.7308 74.1288V79.0139ZM34.5971 79.0788C34.5971 79.4143 34.6242 79.6577 34.6783 79.8092C34.7432 79.9606 34.8568 80.0634 35.0191 80.1175C35.1814 80.1716 35.4465 80.1987 35.8143 80.1987C35.836 80.1987 35.8468 80.2311 35.8468 80.2961C35.8468 80.361 35.836 80.3934 35.8143 80.3934C35.5114 80.3934 35.2734 80.388 35.1003 80.3772L34.0778 80.361L33.1202 80.3772C32.9363 80.388 32.6875 80.3934 32.3737 80.3934C32.3521 80.3934 32.3412 80.361 32.3412 80.2961C32.3412 80.2311 32.3521 80.1987 32.3737 80.1987C32.7416 80.1987 33.0066 80.1716 33.1689 80.1175C33.3312 80.0634 33.4394 79.9606 33.4935 79.8092C33.5584 79.6577 33.5909 79.4143 33.5909 79.0788V74.1126C33.5909 73.788 33.5584 73.55 33.4935 73.3985C33.4394 73.247 33.3258 73.1443 33.1527 73.0902C32.9904 73.0252 32.7307 72.9928 32.3737 72.9928C32.3521 72.9928 32.3412 72.9603 32.3412 72.8954C32.3412 72.8305 32.3521 72.798 32.3737 72.798L33.1202 72.8143C33.5098 72.8359 33.8289 72.8467 34.0778 72.8467C34.3591 72.8467 34.7053 72.8359 35.1165 72.8143L35.8143 72.798C35.836 72.798 35.8468 72.8305 35.8468 72.8954C35.8468 72.9603 35.836 72.9928 35.8143 72.9928C35.4681 72.9928 35.2084 73.0252 35.0353 73.0902C34.8622 73.1551 34.7432 73.2687 34.6783 73.431C34.6242 73.5824 34.5971 73.8205 34.5971 74.1451V79.0788ZM39.7544 76.3685H42.7082L42.8218 76.6606H39.4947L39.7544 76.3685ZM45.7106 80.1987C45.7539 80.1987 45.7755 80.2311 45.7755 80.2961C45.7755 80.361 45.7539 80.3934 45.7106 80.3934C45.5159 80.3934 45.2021 80.3826 44.7693 80.361C44.3365 80.3393 44.0228 80.3285 43.828 80.3285C43.6549 80.3285 43.4277 80.3393 43.1464 80.361C42.8651 80.3826 42.6487 80.3934 42.4972 80.3934C42.4539 80.3934 42.4323 80.361 42.4323 80.2961C42.4323 80.2311 42.4539 80.1987 42.4972 80.1987C42.7893 80.1987 43.0003 80.1662 43.1301 80.1013C43.2708 80.0256 43.3411 79.9011 43.3411 79.728C43.3411 79.5765 43.2708 79.3439 43.1301 79.0302L40.6633 73.7069L41.0852 73.3498L39.0565 78.3972C38.8834 78.8084 38.7969 79.1492 38.7969 79.4197C38.7969 79.701 38.8942 79.9011 39.089 80.0202C39.2837 80.1392 39.5813 80.1987 39.9816 80.1987C40.0357 80.1987 40.0628 80.2311 40.0628 80.2961C40.0628 80.361 40.0357 80.3934 39.9816 80.3934C39.8193 80.3934 39.5975 80.3826 39.3162 80.361C39.0133 80.3393 38.7319 80.3285 38.4723 80.3285C38.2018 80.3285 37.8826 80.3393 37.5147 80.361C37.1901 80.3826 36.9305 80.3934 36.7357 80.3934C36.6816 80.3934 36.6546 80.361 36.6546 80.2961C36.6546 80.2311 36.6816 80.1987 36.7357 80.1987C37.0711 80.1987 37.3362 80.1554 37.531 80.0688C37.7257 79.9715 37.9042 79.7875 38.0665 79.517C38.2396 79.2465 38.4452 78.8246 38.6833 78.2511L41.0203 72.5546C41.0419 72.5113 41.0744 72.4897 41.1177 72.4897C41.161 72.4897 41.188 72.5113 41.1988 72.5546L43.8118 78.17C44.0931 78.7759 44.3149 79.2141 44.4772 79.4846C44.6503 79.7551 44.8234 79.9444 44.9965 80.0526C45.1805 80.15 45.4185 80.1987 45.7106 80.1987ZM47.5672 73.1551L47.8918 73.2038V78.6244C47.8918 79.1979 47.973 79.6036 48.1352 79.8416C48.2975 80.0797 48.5789 80.1987 48.9792 80.1987C49.0008 80.1987 49.0116 80.2311 49.0116 80.2961C49.0116 80.361 49.0008 80.3934 48.9792 80.3934C48.7411 80.3934 48.5572 80.388 48.4274 80.3772L47.7457 80.361L47.0479 80.3772C46.9072 80.388 46.7125 80.3934 46.4636 80.3934C46.442 80.3934 46.4311 80.361 46.4311 80.2961C46.4311 80.2311 46.442 80.1987 46.4636 80.1987C46.8639 80.1987 47.1452 80.0797 47.3075 79.8416C47.4807 79.6036 47.5672 79.1979 47.5672 78.6244V73.1551ZM53.6208 80.572C53.6208 80.5936 53.5938 80.6098 53.5397 80.6206C53.4856 80.6315 53.4477 80.6261 53.4261 80.6044L48.1028 74.1288C47.7566 73.7177 47.4536 73.4256 47.1939 73.2524C46.9451 73.0793 46.7016 72.9928 46.4636 72.9928C46.442 72.9928 46.4311 72.9603 46.4311 72.8954C46.4311 72.8305 46.442 72.798 46.4636 72.798L47.3725 72.8143L48.2326 72.798C48.3084 72.798 48.3679 72.8197 48.4111 72.8629C48.4652 72.9062 48.541 72.9982 48.6384 73.1388C48.7249 73.2795 48.8439 73.4472 48.9954 73.642L53.4585 79.1438L53.6208 80.572ZM53.6208 80.572L53.2962 80.0688V74.567C53.2962 73.9936 53.2151 73.5879 53.0528 73.3498C52.9013 73.1118 52.6254 72.9928 52.2251 72.9928C52.1926 72.9928 52.1764 72.9603 52.1764 72.8954C52.1764 72.8305 52.1926 72.798 52.2251 72.798L52.7769 72.8143C53.0582 72.8359 53.2854 72.8467 53.4585 72.8467C53.6316 72.8467 53.8697 72.8359 54.1726 72.8143L54.7407 72.798C54.7731 72.798 54.7893 72.8305 54.7893 72.8954C54.7893 72.9603 54.7731 72.9928 54.7407 72.9928C54.3403 72.9928 54.0536 73.1118 53.8805 73.3498C53.7074 73.5879 53.6208 73.9936 53.6208 74.567V80.572ZM63.4769 80.1987C63.4985 80.1987 63.5093 80.2311 63.5093 80.2961C63.5093 80.361 63.4985 80.3934 63.4769 80.3934C63.1739 80.3934 62.9413 80.388 62.779 80.3772L61.7565 80.361L60.799 80.3772C60.6151 80.388 60.3662 80.3934 60.0524 80.3934C60.0308 80.3934 60.02 80.361 60.02 80.2961C60.02 80.2311 60.0308 80.1987 60.0524 80.1987C60.4095 80.1987 60.6692 80.1716 60.8315 80.1175C61.0046 80.0634 61.1236 79.9606 61.1885 79.8092C61.2534 79.6469 61.2859 79.4034 61.2859 79.0788V74.1126C61.2859 73.788 61.2534 73.55 61.1885 73.3985C61.1344 73.247 61.0208 73.1443 60.8477 73.0902C60.6854 73.0252 60.4257 72.9928 60.0687 72.9928C60.047 72.9928 60.0362 72.9603 60.0362 72.8954C60.0362 72.8305 60.047 72.798 60.0687 72.798L60.8152 72.8143C61.2047 72.8359 61.5185 72.8467 61.7565 72.8467C61.9513 72.8467 62.1298 72.8413 62.2921 72.8305C62.4652 72.8197 62.6113 72.8088 62.7303 72.798C63.0765 72.7656 63.3957 72.7493 63.6878 72.7493C64.3911 72.7493 64.9267 72.8846 65.2946 73.1551C65.6624 73.4256 65.8464 73.8151 65.8464 74.3236C65.8464 74.7672 65.7165 75.1784 65.4569 75.557C65.1972 75.9357 64.8401 76.2387 64.3857 76.4659C63.9313 76.6823 63.4336 76.7905 62.8926 76.7905C62.5464 76.7905 62.2488 76.7688 62 76.7256L61.9838 76.401C62.2542 76.4767 62.5951 76.5146 63.0062 76.5146C63.677 76.5146 64.1423 76.3685 64.4019 76.0764C64.6724 75.7734 64.8077 75.3352 64.8077 74.7618C64.8077 73.5716 64.2938 72.9765 63.2659 72.9765C62.8547 72.9765 62.5842 73.0631 62.4544 73.2362C62.3354 73.4093 62.2759 73.7123 62.2759 74.1451V79.0788C62.2759 79.4143 62.3029 79.6577 62.357 79.8092C62.4111 79.9606 62.5193 80.0634 62.6816 80.1175C62.8439 80.1716 63.109 80.1987 63.4769 80.1987ZM68.297 80.1987C68.3187 80.1987 68.3295 80.2311 68.3295 80.2961C68.3295 80.361 68.3187 80.3934 68.297 80.3934H66.3982C66.2034 80.3934 65.8518 80.058 65.3433 79.3872C64.8347 78.7164 64.2288 77.7967 63.5256 76.6282L64.3857 76.2874C65.0133 77.3152 65.538 78.1051 65.96 78.6569C66.3819 79.2087 66.7715 79.6036 67.1285 79.8416C67.4964 80.0797 67.8859 80.1987 68.297 80.1987ZM68.9301 80.3934C68.9084 80.3934 68.8976 80.361 68.8976 80.2961C68.8976 80.2311 68.9084 80.1987 68.9301 80.1987C69.2871 80.1987 69.5468 80.1716 69.7091 80.1175C69.8714 80.0634 69.9796 79.9606 70.0337 79.8092C70.0986 79.6469 70.131 79.4034 70.131 79.0788V74.1126C70.131 73.788 70.0986 73.55 70.0337 73.3985C69.9796 73.247 69.8714 73.1443 69.7091 73.0902C69.5468 73.0252 69.2871 72.9928 68.9301 72.9928C68.9084 72.9928 68.8976 72.9603 68.8976 72.8954C68.8976 72.8305 68.9084 72.798 68.9301 72.798H74.5779C74.6861 72.798 74.7402 72.8413 74.7402 72.9279L74.7565 73.9341C74.7673 74.1397 74.7727 74.3993 74.7727 74.7131C74.7727 74.7456 74.7402 74.7618 74.6753 74.7618C74.6104 74.7618 74.5779 74.7456 74.5779 74.7131C74.5347 74.2154 74.3507 73.8097 74.0261 73.4959C73.7124 73.1713 73.3229 73.009 72.8576 73.009H72.4032C72.0245 73.009 71.7486 73.0415 71.5755 73.1064C71.4024 73.1605 71.2833 73.2633 71.2184 73.4147C71.1535 73.5662 71.121 73.8043 71.121 74.1288V79.0139C71.121 79.3277 71.1535 79.5657 71.2184 79.728C71.2833 79.8795 71.4024 79.9877 71.5755 80.0526C71.7594 80.1067 72.0353 80.1338 72.4032 80.1338H73.1822C73.6258 80.1338 74.0153 79.9606 74.3507 79.6144C74.6969 79.2574 74.9296 78.7975 75.0486 78.2349C75.0486 78.2024 75.0756 78.1862 75.1297 78.1862C75.1947 78.1862 75.2271 78.2024 75.2271 78.2349C75.1514 79.0139 75.1135 79.6523 75.1135 80.15C75.1135 80.2365 75.0973 80.3015 75.0648 80.3447C75.0324 80.3772 74.9674 80.3934 74.8701 80.3934H68.9301ZM73.9288 76.9041C73.8855 76.9041 73.6474 76.8716 73.2147 76.8067C72.7927 76.731 71.9596 76.6931 70.7153 76.6931V76.3523C71.9488 76.3523 72.7765 76.3252 73.1984 76.2711C73.6312 76.217 73.8747 76.19 73.9288 76.19C73.9829 76.19 74.0099 76.3036 74.0099 76.5308C74.0099 76.7797 73.9829 76.9041 73.9288 76.9041ZM78.0132 74.1126C78.0132 74.5779 78.1701 74.9565 78.4839 75.2487C78.7976 75.53 79.2683 75.8275 79.8958 76.1413C80.3394 76.3685 80.6911 76.5741 80.9508 76.758C81.2213 76.942 81.4485 77.1692 81.6324 77.4397C81.8163 77.7102 81.9083 78.0347 81.9083 78.4134C81.9083 78.8138 81.7947 79.1816 81.5675 79.517C81.3511 79.8416 81.0373 80.1013 80.6262 80.2961C80.215 80.4908 79.7335 80.5882 79.1817 80.5882C78.4135 80.5882 77.7644 80.3988 77.2342 80.0202C77.1801 79.9985 77.1422 79.9661 77.1206 79.9228C77.1098 79.8795 77.099 79.8092 77.0881 79.7118L76.9258 78.1051C76.915 78.0618 76.9367 78.0347 76.9908 78.0239C77.0557 78.0131 77.099 78.0293 77.1206 78.0726C77.2721 78.7002 77.5696 79.2357 78.0132 79.6793C78.4676 80.1121 78.9708 80.3285 79.5226 80.3285C79.9013 80.3285 80.2258 80.2203 80.4963 80.0039C80.7776 79.7767 80.9183 79.4305 80.9183 78.9652C80.9183 78.4675 80.756 78.0618 80.4314 77.748C80.1068 77.4343 79.6362 77.1151 79.0194 76.7905C78.5867 76.5524 78.2404 76.3469 77.9808 76.1738C77.7319 75.9898 77.5209 75.768 77.3478 75.5083C77.1747 75.2487 77.0881 74.9349 77.0881 74.567C77.0881 73.9503 77.3262 73.4688 77.8022 73.1226C78.2783 72.7764 78.8572 72.6033 79.5388 72.6033C80.0906 72.6033 80.6316 72.7277 81.1617 72.9765C81.2591 73.0306 81.3186 73.0739 81.3403 73.1064C81.3727 73.1388 81.3944 73.1875 81.4052 73.2524L81.5026 74.6644C81.5026 74.7077 81.4701 74.7347 81.4052 74.7456C81.3511 74.7564 81.3186 74.7402 81.3078 74.6969C81.2537 74.4264 81.1293 74.1505 80.9345 73.8692C80.7506 73.577 80.5126 73.3336 80.2204 73.1388C79.9283 72.9441 79.6037 72.8467 79.2467 72.8467C78.8572 72.8467 78.5542 72.9657 78.3378 73.2038C78.1214 73.4418 78.0132 73.7447 78.0132 74.1126ZM85.1283 73.009C84.7171 73.009 84.3926 73.0685 84.1545 73.1875C83.9165 73.2957 83.7271 73.4851 83.5865 73.7556C83.4567 74.0261 83.3539 74.4102 83.2781 74.9079C83.2781 74.9295 83.2457 74.9403 83.1808 74.9403C83.1267 74.9403 83.0996 74.9295 83.0996 74.9079C83.1321 74.659 83.1699 74.2587 83.2132 73.7069C83.2565 73.1551 83.2781 72.7331 83.2781 72.441C83.2781 72.3869 83.3106 72.3598 83.3755 72.3598C83.4404 72.3598 83.4729 72.3869 83.4729 72.441C83.4729 72.5816 83.554 72.6736 83.7163 72.7169C83.8786 72.7493 84.0788 72.7656 84.3168 72.7656C85.269 72.7872 86.0858 72.798 86.7675 72.798L88.1794 72.7818C88.3742 72.771 88.6285 72.7656 88.9422 72.7656C89.3317 72.7656 89.6185 72.7439 89.8024 72.7006C89.9863 72.6465 90.1053 72.5383 90.1594 72.3761C90.1811 72.3436 90.219 72.3274 90.2731 72.3274C90.3272 72.3274 90.3542 72.3436 90.3542 72.3761C90.2893 73.5446 90.2568 74.3885 90.2568 74.9079C90.2568 74.9295 90.2244 74.9403 90.1594 74.9403C90.1053 74.9403 90.0783 74.9295 90.0783 74.9079C90.0675 74.421 90.008 74.0423 89.8998 73.7718C89.8024 73.5013 89.6347 73.3065 89.3967 73.1875C89.1586 73.0685 88.8286 73.009 88.4067 73.009C87.9414 73.009 87.6276 73.0847 87.4653 73.2362C87.3139 73.3769 87.2381 73.669 87.2381 74.1126V79.0788C87.2381 79.4143 87.2706 79.6577 87.3355 79.8092C87.4004 79.9606 87.5249 80.0634 87.7088 80.1175C87.9035 80.1716 88.2119 80.1987 88.6339 80.1987C88.6663 80.1987 88.6826 80.2311 88.6826 80.2961C88.6826 80.361 88.6663 80.3934 88.6339 80.3934C88.2985 80.3934 88.0388 80.388 87.8549 80.3772L86.7188 80.361L85.6314 80.3772C85.4367 80.388 85.1662 80.3934 84.8199 80.3934C84.7983 80.3934 84.7875 80.361 84.7875 80.2961C84.7875 80.2311 84.7983 80.1987 84.8199 80.1987C85.2311 80.1987 85.534 80.1716 85.7288 80.1175C85.9235 80.0634 86.0534 79.9606 86.1183 79.8092C86.194 79.6469 86.2319 79.4034 86.2319 79.0788V74.0802C86.2319 73.7664 86.2049 73.5392 86.1508 73.3985C86.1075 73.247 86.0101 73.1443 85.8586 73.0902C85.7071 73.0361 85.4637 73.009 85.1283 73.009ZM93.466 76.3685H96.4198L96.5334 76.6606H93.2064L93.466 76.3685ZM99.4223 80.1987C99.4655 80.1987 99.4872 80.2311 99.4872 80.2961C99.4872 80.361 99.4655 80.3934 99.4223 80.3934C99.2275 80.3934 98.9137 80.3826 98.481 80.361C98.0482 80.3393 97.7344 80.3285 97.5396 80.3285C97.3665 80.3285 97.1393 80.3393 96.858 80.361C96.5767 80.3826 96.3603 80.3934 96.2088 80.3934C96.1655 80.3934 96.1439 80.361 96.1439 80.2961C96.1439 80.2311 96.1655 80.1987 96.2088 80.1987C96.501 80.1987 96.7119 80.1662 96.8418 80.1013C96.9824 80.0256 97.0528 79.9011 97.0528 79.728C97.0528 79.5765 96.9824 79.3439 96.8418 79.0302L94.3749 73.7069L94.7969 73.3498L92.7682 78.3972C92.5951 78.8084 92.5085 79.1492 92.5085 79.4197C92.5085 79.701 92.6059 79.9011 92.8006 80.0202C92.9954 80.1392 93.2929 80.1987 93.6932 80.1987C93.7473 80.1987 93.7744 80.2311 93.7744 80.2961C93.7744 80.361 93.7473 80.3934 93.6932 80.3934C93.531 80.3934 93.3092 80.3826 93.0278 80.361C92.7249 80.3393 92.4436 80.3285 92.1839 80.3285C91.9134 80.3285 91.5942 80.3393 91.2264 80.361C90.9018 80.3826 90.6421 80.3934 90.4473 80.3934C90.3932 80.3934 90.3662 80.361 90.3662 80.2961C90.3662 80.2311 90.3932 80.1987 90.4473 80.1987C90.7828 80.1987 91.0478 80.1554 91.2426 80.0688C91.4373 79.9715 91.6159 79.7875 91.7782 79.517C91.9513 79.2465 92.1569 78.8246 92.3949 78.2511L94.7319 72.5546C94.7536 72.5113 94.786 72.4897 94.8293 72.4897C94.8726 72.4897 94.8996 72.5113 94.9105 72.5546L97.5234 78.17C97.8047 78.7759 98.0265 79.2141 98.1888 79.4846C98.3619 79.7551 98.5351 79.9444 98.7082 80.0526C98.8921 80.15 99.1301 80.1987 99.4223 80.1987ZM107.08 74.3885C107.08 73.8475 106.993 73.4797 106.82 73.2849C106.647 73.0902 106.311 72.9928 105.814 72.9928C105.781 72.9928 105.765 72.9603 105.765 72.8954C105.765 72.8305 105.781 72.798 105.814 72.798L106.463 72.8143C106.788 72.8359 107.047 72.8467 107.242 72.8467C107.393 72.8467 107.621 72.8359 107.924 72.8143L108.54 72.798C108.562 72.798 108.573 72.8305 108.573 72.8954C108.573 72.9603 108.562 72.9928 108.54 72.9928C108.108 72.9928 107.81 73.0902 107.648 73.2849C107.496 73.4797 107.42 73.8475 107.42 74.3885V77.4072C107.42 78.4134 107.139 79.1979 106.577 79.7605C106.014 80.3231 105.257 80.6044 104.304 80.6044C103.698 80.6044 103.147 80.4854 102.649 80.2474C102.151 79.9985 101.756 79.6469 101.464 79.1924C101.172 78.738 101.026 78.197 101.026 77.5695V74.1126C101.026 73.788 100.994 73.55 100.929 73.3985C100.875 73.247 100.761 73.1443 100.588 73.0902C100.426 73.0252 100.171 72.9928 99.825 72.9928C99.7926 72.9928 99.7764 72.9603 99.7764 72.8954C99.7764 72.8305 99.7926 72.798 99.825 72.798L100.555 72.8143C100.945 72.8359 101.253 72.8467 101.48 72.8467C101.751 72.8467 102.092 72.8359 102.503 72.8143L103.201 72.798C103.233 72.798 103.249 72.8305 103.249 72.8954C103.249 72.9603 103.233 72.9928 103.201 72.9928C102.855 72.9928 102.595 73.0252 102.422 73.0902C102.249 73.1551 102.13 73.2687 102.065 73.431C102.011 73.5824 101.984 73.8205 101.984 74.1451V77.1475C101.984 78.1538 102.232 78.9003 102.73 79.3872C103.239 79.8633 103.888 80.1013 104.678 80.1013C105.424 80.1013 106.008 79.8741 106.43 79.4197C106.863 78.9544 107.08 78.2944 107.08 77.4397V74.3885ZM113.002 80.1987C113.024 80.1987 113.035 80.2311 113.035 80.2961C113.035 80.361 113.024 80.3934 113.002 80.3934C112.699 80.3934 112.467 80.388 112.304 80.3772L111.282 80.361L110.324 80.3772C110.14 80.388 109.892 80.3934 109.578 80.3934C109.556 80.3934 109.545 80.361 109.545 80.2961C109.545 80.2311 109.556 80.1987 109.578 80.1987C109.935 80.1987 110.195 80.1716 110.357 80.1175C110.53 80.0634 110.649 79.9606 110.714 79.8092C110.779 79.6469 110.811 79.4034 110.811 79.0788V74.1126C110.811 73.788 110.779 73.55 110.714 73.3985C110.66 73.247 110.546 73.1443 110.373 73.0902C110.211 73.0252 109.951 72.9928 109.594 72.9928C109.572 72.9928 109.562 72.9603 109.562 72.8954C109.562 72.8305 109.572 72.798 109.594 72.798L110.341 72.8143C110.73 72.8359 111.044 72.8467 111.282 72.8467C111.477 72.8467 111.655 72.8413 111.817 72.8305C111.991 72.8197 112.137 72.8088 112.256 72.798C112.602 72.7656 112.921 72.7493 113.213 72.7493C113.916 72.7493 114.452 72.8846 114.82 73.1551C115.188 73.4256 115.372 73.8151 115.372 74.3236C115.372 74.7672 115.242 75.1784 114.982 75.557C114.723 75.9357 114.365 76.2387 113.911 76.4659C113.457 76.6823 112.959 76.7905 112.418 76.7905C112.072 76.7905 111.774 76.7688 111.525 76.7256L111.509 76.401C111.78 76.4767 112.12 76.5146 112.532 76.5146C113.202 76.5146 113.668 76.3685 113.927 76.0764C114.198 75.7734 114.333 75.3352 114.333 74.7618C114.333 73.5716 113.819 72.9765 112.791 72.9765C112.38 72.9765 112.11 73.0631 111.98 73.2362C111.861 73.4093 111.801 73.7123 111.801 74.1451V79.0788C111.801 79.4143 111.828 79.6577 111.882 79.8092C111.936 79.9606 112.045 80.0634 112.207 80.1175C112.369 80.1716 112.634 80.1987 113.002 80.1987ZM117.822 80.1987C117.844 80.1987 117.855 80.2311 117.855 80.2961C117.855 80.361 117.844 80.3934 117.822 80.3934H115.924C115.729 80.3934 115.377 80.058 114.869 79.3872C114.36 78.7164 113.754 77.7967 113.051 76.6282L113.911 76.2874C114.539 77.3152 115.063 78.1051 115.485 78.6569C115.907 79.2087 116.297 79.6036 116.654 79.8416C117.022 80.0797 117.411 80.1987 117.822 80.1987ZM120.955 76.3685H123.909L124.022 76.6606H120.695L120.955 76.3685ZM126.911 80.1987C126.954 80.1987 126.976 80.2311 126.976 80.2961C126.976 80.361 126.954 80.3934 126.911 80.3934C126.716 80.3934 126.402 80.3826 125.97 80.361C125.537 80.3393 125.223 80.3285 125.028 80.3285C124.855 80.3285 124.628 80.3393 124.347 80.361C124.065 80.3826 123.849 80.3934 123.698 80.3934C123.654 80.3934 123.633 80.361 123.633 80.2961C123.633 80.2311 123.654 80.1987 123.698 80.1987C123.99 80.1987 124.201 80.1662 124.33 80.1013C124.471 80.0256 124.541 79.9011 124.541 79.728C124.541 79.5765 124.471 79.3439 124.33 79.0302L121.864 73.7069L122.286 73.3498L120.257 78.3972C120.084 78.8084 119.997 79.1492 119.997 79.4197C119.997 79.701 120.095 79.9011 120.289 80.0202C120.484 80.1392 120.782 80.1987 121.182 80.1987C121.236 80.1987 121.263 80.2311 121.263 80.2961C121.263 80.361 121.236 80.3934 121.182 80.3934C121.02 80.3934 120.798 80.3826 120.517 80.361C120.214 80.3393 119.932 80.3285 119.673 80.3285C119.402 80.3285 119.083 80.3393 118.715 80.361C118.39 80.3826 118.131 80.3934 117.936 80.3934C117.882 80.3934 117.855 80.361 117.855 80.2961C117.855 80.2311 117.882 80.1987 117.936 80.1987C118.271 80.1987 118.537 80.1554 118.731 80.0688C118.926 79.9715 119.105 79.7875 119.267 79.517C119.44 79.2465 119.646 78.8246 119.884 78.2511L122.221 72.5546C122.242 72.5113 122.275 72.4897 122.318 72.4897C122.361 72.4897 122.388 72.5113 122.399 72.5546L125.012 78.17C125.293 78.7759 125.515 79.2141 125.678 79.4846C125.851 79.7551 126.024 79.9444 126.197 80.0526C126.381 80.15 126.619 80.1987 126.911 80.1987ZM128.768 73.1551L129.092 73.2038V78.6244C129.092 79.1979 129.173 79.6036 129.336 79.8416C129.498 80.0797 129.779 80.1987 130.18 80.1987C130.201 80.1987 130.212 80.2311 130.212 80.2961C130.212 80.361 130.201 80.3934 130.18 80.3934C129.942 80.3934 129.758 80.388 129.628 80.3772L128.946 80.361L128.248 80.3772C128.108 80.388 127.913 80.3934 127.664 80.3934C127.642 80.3934 127.632 80.361 127.632 80.2961C127.632 80.2311 127.642 80.1987 127.664 80.1987C128.064 80.1987 128.346 80.0797 128.508 79.8416C128.681 79.6036 128.768 79.1979 128.768 78.6244V73.1551ZM134.821 80.572C134.821 80.5936 134.794 80.6098 134.74 80.6206C134.686 80.6315 134.648 80.6261 134.626 80.6044L129.303 74.1288C128.957 73.7177 128.654 73.4256 128.394 73.2524C128.145 73.0793 127.902 72.9928 127.664 72.9928C127.642 72.9928 127.632 72.9603 127.632 72.8954C127.632 72.8305 127.642 72.798 127.664 72.798L128.573 72.8143L129.433 72.798C129.509 72.798 129.568 72.8197 129.612 72.8629C129.666 72.9062 129.741 72.9982 129.839 73.1388C129.925 73.2795 130.044 73.4472 130.196 73.642L134.659 79.1438L134.821 80.572ZM134.821 80.572L134.497 80.0688V74.567C134.497 73.9936 134.415 73.5879 134.253 73.3498C134.102 73.1118 133.826 72.9928 133.425 72.9928C133.393 72.9928 133.377 72.9603 133.377 72.8954C133.377 72.8305 133.393 72.798 133.425 72.798L133.977 72.8143C134.259 72.8359 134.486 72.8467 134.659 72.8467C134.832 72.8467 135.07 72.8359 135.373 72.8143L135.941 72.798C135.973 72.798 135.99 72.8305 135.99 72.8954C135.99 72.9603 135.973 72.9928 135.941 72.9928C135.541 72.9928 135.254 73.1118 135.081 73.3498C134.908 73.5879 134.821 73.9936 134.821 74.567V80.572ZM139.091 73.009C138.68 73.009 138.356 73.0685 138.118 73.1875C137.88 73.2957 137.69 73.4851 137.55 73.7556C137.42 74.0261 137.317 74.4102 137.241 74.9079C137.241 74.9295 137.209 74.9403 137.144 74.9403C137.09 74.9403 137.063 74.9295 137.063 74.9079C137.095 74.659 137.133 74.2587 137.176 73.7069C137.22 73.1551 137.241 72.7331 137.241 72.441C137.241 72.3869 137.274 72.3598 137.339 72.3598C137.404 72.3598 137.436 72.3869 137.436 72.441C137.436 72.5816 137.517 72.6736 137.679 72.7169C137.842 72.7493 138.042 72.7656 138.28 72.7656C139.232 72.7872 140.049 72.798 140.731 72.798L142.143 72.7818C142.337 72.771 142.592 72.7656 142.905 72.7656C143.295 72.7656 143.582 72.7439 143.766 72.7006C143.949 72.6465 144.068 72.5383 144.123 72.3761C144.144 72.3436 144.182 72.3274 144.236 72.3274C144.29 72.3274 144.317 72.3436 144.317 72.3761C144.252 73.5446 144.22 74.3885 144.22 74.9079C144.22 74.9295 144.187 74.9403 144.123 74.9403C144.068 74.9403 144.041 74.9295 144.041 74.9079C144.031 74.421 143.971 74.0423 143.863 73.7718C143.766 73.5013 143.598 73.3065 143.36 73.1875C143.122 73.0685 142.792 73.009 142.37 73.009C141.905 73.009 141.591 73.0847 141.428 73.2362C141.277 73.3769 141.201 73.669 141.201 74.1126V79.0788C141.201 79.4143 141.234 79.6577 141.299 79.8092C141.364 79.9606 141.488 80.0634 141.672 80.1175C141.867 80.1716 142.175 80.1987 142.597 80.1987C142.629 80.1987 142.646 80.2311 142.646 80.2961C142.646 80.361 142.629 80.3934 142.597 80.3934C142.262 80.3934 142.002 80.388 141.818 80.3772L140.682 80.361L139.595 80.3772C139.4 80.388 139.129 80.3934 138.783 80.3934C138.761 80.3934 138.751 80.361 138.751 80.2961C138.751 80.2311 138.761 80.1987 138.783 80.1987C139.194 80.1987 139.497 80.1716 139.692 80.1175C139.887 80.0634 140.016 79.9606 140.081 79.8092C140.157 79.6469 140.195 79.4034 140.195 79.0788V74.0802C140.195 73.7664 140.168 73.5392 140.114 73.3985C140.071 73.247 139.973 73.1443 139.822 73.0902C139.67 73.0361 139.427 73.009 139.091 73.009Z" fill="#FFEBA9"/>
</svg>
