<svg width="392" height="239" viewBox="0 0 392 239" fill="none" xmlns="http://www.w3.org/2000/svg">
<path d="M33.9241 91.3507H62.9803L63.9676 94.3127H31.8084L33.9241 91.3507ZM100.358 139.307C100.734 139.307 100.923 139.59 100.923 140.154C100.923 140.718 100.734 141 100.358 141C98.5717 141 95.7977 140.906 92.0364 140.718C88.2751 140.53 85.5482 140.436 83.8556 140.436C81.7868 140.436 79.1539 140.53 75.9568 140.718C72.9478 140.906 70.644 141 69.0454 141C68.6693 141 68.4812 140.718 68.4812 140.154C68.4812 139.59 68.6693 139.307 69.0454 139.307C72.6186 139.307 75.1575 138.978 76.6621 138.32C78.2606 137.662 79.0599 136.486 79.0599 134.794C79.0599 133.383 78.4957 131.409 77.3673 128.87L46.0544 62.7177L49.5806 58.3452L22.2171 123.087C20.9006 126.284 20.2424 128.917 20.2424 130.986C20.2424 136.533 24.85 139.307 34.0652 139.307C34.5354 139.307 34.7704 139.59 34.7704 140.154C34.7704 140.718 34.5354 141 34.0652 141C32.3726 141 29.9278 140.906 26.7306 140.718C23.1574 140.53 20.0543 140.436 17.4214 140.436C14.9765 140.436 12.1556 140.53 8.95844 140.718C6.13745 140.906 3.78663 141 1.90598 141C1.43581 141 1.20073 140.718 1.20073 140.154C1.20073 139.59 1.43581 139.307 1.90598 139.307C4.53889 139.307 6.74867 138.837 8.53529 137.897C10.4159 136.863 12.1556 135.123 13.7541 132.678C15.4467 130.139 17.2803 126.519 19.255 121.817L49.0164 51.5748C49.2045 51.2927 49.5336 51.1517 50.0038 51.1517C50.4739 51.1517 50.756 51.2927 50.85 51.5748L84.1377 121.676C87.3348 128.635 90.0617 133.336 92.3185 135.781C94.5753 138.132 97.2552 139.307 100.358 139.307ZM177.119 68.3597C177.119 59.1444 173.028 54.5368 164.847 54.5368C164.565 54.5368 164.424 54.2547 164.424 53.6905C164.424 53.1264 164.565 52.8443 164.847 52.8443L170.912 52.9853C174.298 53.1734 176.978 53.2674 178.952 53.2674C180.551 53.2674 182.855 53.1734 185.864 52.9853L191.788 52.8443C191.976 52.8443 192.07 53.1264 192.07 53.6905C192.07 54.2547 191.976 54.5368 191.788 54.5368C184.265 54.5368 180.504 59.1444 180.504 68.3597V108.418C180.504 119.231 177.495 127.694 171.477 133.806C165.459 139.825 157.372 142.834 147.216 142.834C140.258 142.834 134.146 141.47 128.88 138.743C123.708 136.016 119.665 132.161 116.75 127.177C113.929 122.099 112.518 116.175 112.518 109.405V64.2692C112.518 61.4483 112.236 59.3795 111.672 58.0631C111.108 56.7466 109.979 55.8533 108.287 55.3831C106.688 54.8189 104.102 54.5368 100.529 54.5368C100.341 54.5368 100.247 54.2547 100.247 53.6905C100.247 53.1264 100.341 52.8443 100.529 52.8443L107.44 52.9853C111.39 53.1734 114.587 53.2674 117.032 53.2674C119.571 53.2674 122.909 53.1734 127.046 52.9853L133.534 52.8443C133.817 52.8443 133.958 53.1264 133.958 53.6905C133.958 54.2547 133.817 54.5368 133.534 54.5368C130.055 54.5368 127.469 54.8189 125.777 55.3831C124.178 55.9473 123.097 56.9347 122.533 58.3452C121.968 59.6616 121.686 61.7303 121.686 64.5513V104.468C121.686 115.564 124.178 124.027 129.162 129.857C134.146 135.687 141.198 138.602 150.319 138.602C158.782 138.602 165.365 135.969 170.066 130.703C174.768 125.344 177.119 117.962 177.119 108.559V68.3597ZM273.661 141C271.31 141 266.797 136.863 260.12 128.588C253.538 120.219 245.592 108.747 236.283 94.1717L244.182 91.6328C252.363 103.763 259.18 113.26 264.634 120.125C270.182 126.895 275.072 131.785 279.303 134.794C283.535 137.803 287.672 139.307 291.715 139.307C291.997 139.307 292.139 139.59 292.139 140.154C292.139 140.718 291.997 141 291.715 141H273.661ZM235.296 52.4211C242.912 52.4211 248.789 53.9726 252.927 57.0757C257.064 60.1788 259.133 64.5043 259.133 70.0523C259.133 74.6599 257.77 78.9854 255.043 83.0288C252.316 87.0722 248.648 90.3163 244.041 92.7612C239.527 95.112 234.637 96.2874 229.372 96.2874C227.585 96.2874 225.469 96.1934 223.024 96.0053V129.575C223.024 132.49 223.307 134.606 223.871 135.922C224.435 137.239 225.516 138.132 227.115 138.602C228.807 139.072 231.44 139.307 235.014 139.307C235.296 139.307 235.437 139.59 235.437 140.154C235.437 140.718 235.296 141 235.014 141C232.099 141 229.795 140.953 228.102 140.859L218.37 140.718L208.778 140.859C207.086 140.953 204.688 141 201.585 141C201.397 141 201.303 140.718 201.303 140.154C201.303 139.59 201.397 139.307 201.585 139.307C205.158 139.307 207.791 139.072 209.484 138.602C211.176 138.038 212.352 137.098 213.01 135.781C213.668 134.465 213.997 132.396 213.997 129.575V64.2692C213.997 61.4483 213.668 59.3795 213.01 58.0631C212.446 56.7466 211.317 55.8533 209.625 55.3831C208.026 54.8189 205.44 54.5368 201.867 54.5368C201.585 54.5368 201.444 54.2547 201.444 53.6905C201.444 53.1264 201.585 52.8443 201.867 52.8443L208.778 52.9853C212.728 53.1734 215.925 53.2674 218.37 53.2674C220.062 53.2674 221.661 53.2204 223.165 53.1263C224.67 53.0323 225.986 52.9383 227.115 52.8443C230.124 52.5622 232.851 52.4211 235.296 52.4211ZM249.542 74.989C249.542 61.3542 243.806 54.5368 232.334 54.5368C229.795 54.5368 227.867 54.7719 226.551 55.2421C225.328 55.6182 224.435 56.5115 223.871 57.922C223.307 59.2385 223.024 61.4482 223.024 64.5513V92.4791C225.281 92.8552 228.055 93.0433 231.346 93.0433C237.835 93.0433 242.489 91.6798 245.31 88.9528C248.131 86.1319 249.542 81.4772 249.542 74.989ZM323.179 91.3507H352.235L353.223 94.3127H321.063L323.179 91.3507ZM389.613 139.307C389.989 139.307 390.177 139.59 390.177 140.154C390.177 140.718 389.989 141 389.613 141C387.827 141 385.053 140.906 381.291 140.718C377.53 140.53 374.803 140.436 373.11 140.436C371.042 140.436 368.409 140.53 365.212 140.718C362.203 140.906 359.899 141 358.3 141C357.924 141 357.736 140.718 357.736 140.154C357.736 139.59 357.924 139.307 358.3 139.307C361.874 139.307 364.412 138.978 365.917 138.32C367.516 137.662 368.315 136.486 368.315 134.794C368.315 133.383 367.751 131.409 366.622 128.87L335.309 62.7177L338.836 58.3452L311.472 123.087C310.156 126.284 309.497 128.917 309.497 130.986C309.497 136.533 314.105 139.307 323.32 139.307C323.79 139.307 324.025 139.59 324.025 140.154C324.025 140.718 323.79 141 323.32 141C321.628 141 319.183 140.906 315.986 140.718C312.412 140.53 309.309 140.436 306.676 140.436C304.231 140.436 301.41 140.53 298.213 140.718C295.392 140.906 293.042 141 291.161 141C290.691 141 290.456 140.718 290.456 140.154C290.456 139.59 290.691 139.307 291.161 139.307C293.794 139.307 296.004 138.837 297.79 137.897C299.671 136.863 301.41 135.123 303.009 132.678C304.702 130.139 306.535 126.519 308.51 121.817L338.271 51.5748C338.459 51.2927 338.789 51.1517 339.259 51.1517C339.729 51.1517 340.011 51.2927 340.105 51.5748L373.393 121.676C376.59 128.635 379.317 133.336 381.573 135.781C383.83 138.132 386.51 139.307 389.613 139.307Z" fill="#621007"/>
<path d="M322.103 138.367H351.16L352.147 141.329H319.988L322.103 138.367ZM388.538 186.324C388.914 186.324 389.102 186.606 389.102 187.17C389.102 187.734 388.914 188.016 388.538 188.016C386.751 188.016 383.977 187.922 380.216 187.734C376.454 187.546 373.727 187.452 372.035 187.452C369.966 187.452 367.333 187.546 364.136 187.734C361.127 187.922 358.823 188.016 357.225 188.016C356.849 188.016 356.661 187.734 356.661 187.17C356.661 186.606 356.849 186.324 357.225 186.324C360.798 186.324 363.337 185.995 364.841 185.336C366.44 184.678 367.239 183.503 367.239 181.81C367.239 180.4 366.675 178.425 365.547 175.886L334.234 109.734L337.76 105.362L310.396 170.103C309.08 173.3 308.422 175.933 308.422 178.002C308.422 183.55 313.029 186.324 322.245 186.324C322.715 186.324 322.95 186.606 322.95 187.17C322.95 187.734 322.715 188.016 322.245 188.016C320.552 188.016 318.107 187.922 314.91 187.734C311.337 187.546 308.234 187.452 305.601 187.452C303.156 187.452 300.335 187.546 297.138 187.734C294.317 187.922 291.966 188.016 290.085 188.016C289.615 188.016 289.38 187.734 289.38 187.17C289.38 186.606 289.615 186.324 290.085 186.324C292.718 186.324 294.928 185.854 296.715 184.913C298.595 183.879 300.335 182.139 301.933 179.694C303.626 177.156 305.46 173.535 307.434 168.834L337.196 98.5912C337.384 98.3091 337.713 98.168 338.183 98.168C338.653 98.168 338.935 98.3091 339.029 98.5912L372.317 168.693C375.514 175.651 378.241 180.353 380.498 182.798C382.755 185.148 385.435 186.324 388.538 186.324Z" fill="#621007"/>
<path d="M0 170.434H391.823" stroke="#621007" stroke-width="3.91803"/>
<path d="M12.2003 209.82C12.2003 210.711 12.2865 211.358 12.4589 211.76C12.6313 212.162 12.9618 212.435 13.4502 212.579C13.9674 212.722 14.7719 212.794 15.8637 212.794C15.9499 212.794 15.993 212.88 15.993 213.053C15.993 213.225 15.9499 213.311 15.8637 213.311C15.0017 213.311 14.3122 213.297 13.795 213.268L10.735 213.225L7.76121 213.268C7.24403 213.297 6.54009 213.311 5.64939 213.311C5.5632 213.311 5.5201 213.225 5.5201 213.053C5.5201 212.88 5.5632 212.794 5.64939 212.794C6.74122 212.794 7.53136 212.722 8.01981 212.579C8.53699 212.435 8.88177 212.162 9.05417 211.76C9.25529 211.329 9.35585 210.682 9.35585 209.82V189.866C9.35585 189.004 9.25529 188.372 9.05417 187.97C8.88177 187.567 8.53699 187.294 8.01981 187.151C7.53136 186.978 6.74122 186.892 5.64939 186.892C5.5632 186.892 5.5201 186.806 5.5201 186.634C5.5201 186.461 5.5632 186.375 5.64939 186.375L7.76121 186.418C8.96797 186.476 9.95923 186.504 10.735 186.504C11.597 186.504 12.6313 186.476 13.8381 186.418L15.8637 186.375C15.9499 186.375 15.993 186.461 15.993 186.634C15.993 186.806 15.9499 186.892 15.8637 186.892C14.8006 186.892 14.0105 186.978 13.4933 187.151C12.9761 187.323 12.6313 187.625 12.4589 188.056C12.2865 188.458 12.2003 189.09 12.2003 189.952V209.82ZM24.9934 193.702C23.9015 193.702 23.0396 193.86 22.4075 194.176C21.7754 194.463 21.2725 194.966 20.899 195.684C20.5542 196.403 20.2813 197.423 20.0802 198.744C20.0802 198.802 19.994 198.83 19.8216 198.83C19.6779 198.83 19.6061 198.802 19.6061 198.744C19.6923 198.083 19.7928 197.02 19.9078 195.555C20.0227 194.09 20.0802 192.969 20.0802 192.193C20.0802 192.05 20.1664 191.978 20.3387 191.978C20.5111 191.978 20.5973 192.05 20.5973 192.193C20.5973 192.567 20.8128 192.811 21.2438 192.926C21.6748 193.012 22.2063 193.055 22.8385 193.055C25.3669 193.113 27.5362 193.141 29.3463 193.141L33.0959 193.098C33.613 193.07 34.2883 193.055 35.1215 193.055C36.1559 193.055 36.9173 192.998 37.4057 192.883C37.8942 192.739 38.2102 192.452 38.3539 192.021C38.4113 191.935 38.5119 191.892 38.6556 191.892C38.7992 191.892 38.871 191.935 38.871 192.021C38.6987 195.124 38.6125 197.365 38.6125 198.744C38.6125 198.802 38.5263 198.83 38.3539 198.83C38.2102 198.83 38.1384 198.802 38.1384 198.744C38.1096 197.451 37.9516 196.446 37.6643 195.727C37.4057 195.009 36.9604 194.492 36.3282 194.176C35.6961 193.86 34.8198 193.702 33.6992 193.702C32.4638 193.702 31.6305 193.903 31.1995 194.305C30.7973 194.679 30.5962 195.454 30.5962 196.632V209.82C30.5962 210.711 30.6824 211.358 30.8548 211.76C31.0271 212.162 31.3576 212.435 31.846 212.579C32.3632 212.722 33.1821 212.794 34.3026 212.794C34.3888 212.794 34.4319 212.88 34.4319 213.053C34.4319 213.225 34.3888 213.311 34.3026 213.311C33.4119 213.311 32.7223 213.297 32.2339 213.268L29.217 213.225L26.3294 213.268C25.8122 213.297 25.0939 213.311 24.1745 213.311C24.117 213.311 24.0883 213.225 24.0883 213.053C24.0883 212.88 24.117 212.794 24.1745 212.794C25.2663 212.794 26.0708 212.722 26.588 212.579C27.1052 212.435 27.45 212.162 27.6224 211.76C27.8235 211.329 27.9241 210.682 27.9241 209.82V196.546C27.9241 195.713 27.8522 195.11 27.7086 194.736C27.5936 194.334 27.3351 194.061 26.9328 193.917C26.5305 193.774 25.8841 193.702 24.9934 193.702ZM47.1347 202.623H54.9786L55.2803 203.399H46.4451L47.1347 202.623ZM62.9518 212.794C63.0667 212.794 63.1242 212.88 63.1242 213.053C63.1242 213.225 63.0667 213.311 62.9518 213.311C62.4346 213.311 61.6014 213.283 60.4521 213.225C59.3028 213.168 58.4696 213.139 57.9524 213.139C57.4927 213.139 56.8893 213.168 56.1423 213.225C55.3952 213.283 54.8206 213.311 54.4183 213.311C54.3034 213.311 54.2459 213.225 54.2459 213.053C54.2459 212.88 54.3034 212.794 54.4183 212.794C55.1941 212.794 55.7544 212.708 56.0992 212.536C56.4727 212.335 56.6594 212.004 56.6594 211.544C56.6594 211.142 56.4727 210.524 56.0992 209.691L49.5482 195.555L50.6688 194.607L45.2815 208.01C44.8218 209.102 44.5919 210.007 44.5919 210.726C44.5919 211.473 44.8505 212.004 45.3677 212.32C45.8849 212.636 46.675 212.794 47.7381 212.794C47.8817 212.794 47.9536 212.88 47.9536 213.053C47.9536 213.225 47.8817 213.311 47.7381 213.311C47.3071 213.311 46.7181 213.283 45.971 213.225C45.1665 213.168 44.4195 213.139 43.7299 213.139C43.0116 213.139 42.164 213.168 41.1871 213.225C40.3252 213.283 39.6356 213.311 39.1184 213.311C38.9747 213.311 38.9029 213.225 38.9029 213.053C38.9029 212.88 38.9747 212.794 39.1184 212.794C40.0091 212.794 40.713 212.679 41.2302 212.449C41.7474 212.191 42.2215 211.702 42.6525 210.984C43.1122 210.266 43.6581 209.145 44.2902 207.622L50.4964 192.495C50.5538 192.38 50.64 192.323 50.755 192.323C50.8699 192.323 50.9417 192.38 50.9705 192.495L57.9093 207.407C58.6563 209.016 59.2453 210.18 59.6763 210.898C60.136 211.616 60.5958 212.119 61.0555 212.406C61.5439 212.665 62.176 212.794 62.9518 212.794ZM70.9852 209.648C70.9852 210.481 71.057 211.099 71.2007 211.501C71.373 211.904 71.6747 212.191 72.1057 212.363C72.5654 212.536 73.2406 212.622 74.1313 212.622H77.0189C78.513 212.622 79.7054 212.148 80.5961 211.2C81.5155 210.251 82.1333 208.944 82.4493 207.278C82.4493 207.22 82.5068 207.191 82.6217 207.191C82.7079 207.191 82.7797 207.206 82.8372 207.235C82.9234 207.263 82.9665 207.306 82.9665 207.364C82.7654 208.686 82.6648 210.453 82.6648 212.665C82.6648 212.895 82.6074 213.067 82.4924 213.182C82.4062 213.268 82.2482 213.311 82.0183 213.311H65.1669C65.1094 213.311 65.0807 213.225 65.0807 213.053C65.0807 212.88 65.1094 212.794 65.1669 212.794C66.115 212.794 66.8046 212.722 67.2356 212.579C67.6666 212.435 67.9539 212.162 68.0976 211.76C68.2412 211.329 68.3131 210.682 68.3131 209.82V196.632C68.3131 195.77 68.2269 195.138 68.0545 194.736C67.9108 194.334 67.6235 194.061 67.1925 193.917C66.7615 193.745 66.0863 193.659 65.1669 193.659C65.1094 193.659 65.0807 193.572 65.0807 193.4C65.0807 193.228 65.1094 193.141 65.1669 193.141L67.1063 193.185C68.1981 193.242 69.0457 193.271 69.6491 193.271C70.3674 193.271 71.2725 193.242 72.3643 193.185L74.1744 193.141C74.2606 193.141 74.3037 193.228 74.3037 193.4C74.3037 193.572 74.2606 193.659 74.1744 193.659C73.2263 193.659 72.5367 193.745 72.1057 193.917C71.6747 194.061 71.373 194.348 71.2007 194.779C71.057 195.181 70.9852 195.814 70.9852 196.675V209.648ZM91.8746 209.82C91.8746 210.711 91.9464 211.358 92.0901 211.76C92.2625 212.162 92.5642 212.435 92.9952 212.579C93.4262 212.722 94.1301 212.794 95.107 212.794C95.1645 212.794 95.1932 212.88 95.1932 213.053C95.1932 213.225 95.1645 213.311 95.107 213.311C94.3025 213.311 93.6704 213.297 93.2107 213.268L90.4955 213.225L87.9527 213.268C87.4642 213.297 86.8034 213.311 85.9701 213.311C85.9127 213.311 85.8839 213.225 85.8839 213.053C85.8839 212.88 85.9127 212.794 85.9701 212.794C86.947 212.794 87.651 212.722 88.082 212.579C88.5129 212.435 88.8003 212.162 88.9439 211.76C89.1163 211.358 89.2025 210.711 89.2025 209.82V196.632C89.2025 195.77 89.1163 195.138 88.9439 194.736C88.8003 194.334 88.4986 194.061 88.0389 193.917C87.6079 193.745 86.9183 193.659 85.9701 193.659C85.9127 193.659 85.8839 193.572 85.8839 193.4C85.8839 193.228 85.9127 193.141 85.9701 193.141L87.9527 193.185C88.987 193.242 89.8346 193.271 90.4955 193.271C91.2425 193.271 92.1619 193.242 93.2538 193.185L95.107 193.141C95.1645 193.141 95.1932 193.228 95.1932 193.4C95.1932 193.572 95.1645 193.659 95.107 193.659C94.1876 193.659 93.498 193.745 93.0383 193.917C92.5786 194.09 92.2625 194.391 92.0901 194.822C91.9464 195.225 91.8746 195.857 91.8746 196.719V209.82ZM105.57 202.623H113.414L113.716 203.399H104.88L105.57 202.623ZM121.387 212.794C121.502 212.794 121.56 212.88 121.56 213.053C121.56 213.225 121.502 213.311 121.387 213.311C120.87 213.311 120.037 213.283 118.887 213.225C117.738 213.168 116.905 213.139 116.388 213.139C115.928 213.139 115.325 213.168 114.578 213.225C113.831 213.283 113.256 213.311 112.854 213.311C112.739 213.311 112.681 213.225 112.681 213.053C112.681 212.88 112.739 212.794 112.854 212.794C113.629 212.794 114.19 212.708 114.534 212.536C114.908 212.335 115.095 212.004 115.095 211.544C115.095 211.142 114.908 210.524 114.534 209.691L107.984 195.555L109.104 194.607L103.717 208.01C103.257 209.102 103.027 210.007 103.027 210.726C103.027 211.473 103.286 212.004 103.803 212.32C104.32 212.636 105.11 212.794 106.173 212.794C106.317 212.794 106.389 212.88 106.389 213.053C106.389 213.225 106.317 213.311 106.173 213.311C105.742 213.311 105.153 213.283 104.406 213.225C103.602 213.168 102.855 213.139 102.165 213.139C101.447 213.139 100.599 213.168 99.6224 213.225C98.7605 213.283 98.0709 213.311 97.5537 213.311C97.4101 213.311 97.3382 213.225 97.3382 213.053C97.3382 212.88 97.4101 212.794 97.5537 212.794C98.4444 212.794 99.1484 212.679 99.6655 212.449C100.183 212.191 100.657 211.702 101.088 210.984C101.548 210.266 102.093 209.145 102.726 207.622L108.932 192.495C108.989 192.38 109.075 192.323 109.19 192.323C109.305 192.323 109.377 192.38 109.406 192.495L116.345 207.407C117.092 209.016 117.681 210.18 118.112 210.898C118.571 211.616 119.031 212.119 119.491 212.406C119.979 212.665 120.611 212.794 121.387 212.794ZM126.317 194.09L127.179 194.219V208.614C127.179 210.137 127.395 211.214 127.826 211.846C128.257 212.478 129.004 212.794 130.067 212.794C130.124 212.794 130.153 212.88 130.153 213.053C130.153 213.225 130.124 213.311 130.067 213.311C129.435 213.311 128.946 213.297 128.602 213.268L126.791 213.225L124.938 213.268C124.565 213.297 124.048 213.311 123.387 213.311C123.329 213.311 123.301 213.225 123.301 213.053C123.301 212.88 123.329 212.794 123.387 212.794C124.45 212.794 125.197 212.478 125.628 211.846C126.088 211.214 126.317 210.137 126.317 208.614V194.09ZM142.393 213.786C142.393 213.843 142.321 213.886 142.178 213.915C142.034 213.944 141.933 213.929 141.876 213.872L127.74 196.675C126.82 195.584 126.016 194.808 125.326 194.348C124.665 193.888 124.019 193.659 123.387 193.659C123.329 193.659 123.301 193.572 123.301 193.4C123.301 193.228 123.329 193.141 123.387 193.141L125.8 193.185L128.084 193.141C128.286 193.141 128.444 193.199 128.559 193.314C128.702 193.429 128.903 193.673 129.162 194.046C129.392 194.42 129.708 194.865 130.11 195.383L141.962 209.993L142.393 213.786ZM142.393 213.786L141.531 212.449V197.839C141.531 196.316 141.316 195.239 140.885 194.607C140.482 193.975 139.75 193.659 138.687 193.659C138.6 193.659 138.557 193.572 138.557 193.4C138.557 193.228 138.6 193.141 138.687 193.141L140.152 193.185C140.899 193.242 141.502 193.271 141.962 193.271C142.422 193.271 143.054 193.242 143.858 193.185L145.367 193.141C145.453 193.141 145.496 193.228 145.496 193.4C145.496 193.572 145.453 193.659 145.367 193.659C144.304 193.659 143.542 193.975 143.083 194.607C142.623 195.239 142.393 196.316 142.393 197.839V213.786ZM168.566 212.794C168.624 212.794 168.653 212.88 168.653 213.053C168.653 213.225 168.624 213.311 168.566 213.311C167.762 213.311 167.144 213.297 166.713 213.268L163.998 213.225L161.455 213.268C160.967 213.297 160.306 213.311 159.473 213.311C159.415 213.311 159.386 213.225 159.386 213.053C159.386 212.88 159.415 212.794 159.473 212.794C160.421 212.794 161.11 212.722 161.541 212.579C162.001 212.435 162.317 212.162 162.489 211.76C162.662 211.329 162.748 210.682 162.748 209.82V196.632C162.748 195.77 162.662 195.138 162.489 194.736C162.346 194.334 162.044 194.061 161.584 193.917C161.153 193.745 160.464 193.659 159.516 193.659C159.458 193.659 159.429 193.572 159.429 193.4C159.429 193.228 159.458 193.141 159.516 193.141L161.498 193.185C162.533 193.242 163.366 193.271 163.998 193.271C164.515 193.271 164.989 193.256 165.42 193.228C165.88 193.199 166.268 193.17 166.584 193.141C167.503 193.055 168.351 193.012 169.127 193.012C170.994 193.012 172.416 193.371 173.393 194.09C174.37 194.808 174.859 195.842 174.859 197.193C174.859 198.371 174.514 199.463 173.824 200.468C173.135 201.474 172.187 202.278 170.98 202.882C169.773 203.456 168.451 203.744 167.015 203.744C166.095 203.744 165.305 203.686 164.644 203.571L164.601 202.709C165.32 202.91 166.225 203.011 167.316 203.011C169.098 203.011 170.333 202.623 171.023 201.847C171.741 201.043 172.1 199.879 172.1 198.356C172.1 195.196 170.736 193.616 168.006 193.616C166.914 193.616 166.196 193.845 165.851 194.305C165.535 194.765 165.377 195.569 165.377 196.719V209.82C165.377 210.711 165.449 211.358 165.593 211.76C165.736 212.162 166.024 212.435 166.455 212.579C166.886 212.722 167.589 212.794 168.566 212.794ZM181.367 212.794C181.424 212.794 181.453 212.88 181.453 213.053C181.453 213.225 181.424 213.311 181.367 213.311H176.324C175.807 213.311 174.873 212.421 173.523 210.639C172.172 208.858 170.563 206.416 168.696 203.313L170.98 202.408C172.646 205.137 174.04 207.235 175.16 208.7C176.281 210.165 177.315 211.214 178.263 211.846C179.24 212.478 180.275 212.794 181.367 212.794ZM183.048 213.311C182.99 213.311 182.961 213.225 182.961 213.053C182.961 212.88 182.99 212.794 183.048 212.794C183.996 212.794 184.685 212.722 185.116 212.579C185.547 212.435 185.835 212.162 185.978 211.76C186.151 211.329 186.237 210.682 186.237 209.82V196.632C186.237 195.77 186.151 195.138 185.978 194.736C185.835 194.334 185.547 194.061 185.116 193.917C184.685 193.745 183.996 193.659 183.048 193.659C182.99 193.659 182.961 193.572 182.961 193.4C182.961 193.228 182.99 193.141 183.048 193.141H198.046C198.333 193.141 198.477 193.256 198.477 193.486L198.52 196.158C198.549 196.704 198.563 197.394 198.563 198.227C198.563 198.313 198.477 198.356 198.304 198.356C198.132 198.356 198.046 198.313 198.046 198.227C197.931 196.905 197.442 195.828 196.581 194.995C195.747 194.133 194.713 193.702 193.477 193.702H192.271C191.265 193.702 190.532 193.788 190.073 193.96C189.613 194.104 189.297 194.377 189.124 194.779C188.952 195.181 188.866 195.814 188.866 196.675V209.648C188.866 210.481 188.952 211.113 189.124 211.544C189.297 211.947 189.613 212.234 190.073 212.406C190.561 212.55 191.294 212.622 192.271 212.622H194.339C195.517 212.622 196.552 212.162 197.442 211.243C198.362 210.295 198.98 209.073 199.296 207.579C199.296 207.493 199.368 207.45 199.511 207.45C199.684 207.45 199.77 207.493 199.77 207.579C199.569 209.648 199.468 211.343 199.468 212.665C199.468 212.895 199.425 213.067 199.339 213.182C199.253 213.268 199.08 213.311 198.822 213.311H183.048ZM196.322 204.045C196.207 204.045 195.575 203.959 194.426 203.787C193.305 203.586 191.093 203.485 187.788 203.485V202.58C191.064 202.58 193.262 202.508 194.382 202.364C195.532 202.221 196.178 202.149 196.322 202.149C196.466 202.149 196.537 202.451 196.537 203.054C196.537 203.715 196.466 204.045 196.322 204.045ZM207.168 196.632C207.168 197.868 207.585 198.874 208.418 199.649C209.252 200.396 210.501 201.186 212.168 202.02C213.346 202.623 214.28 203.169 214.969 203.657C215.688 204.146 216.291 204.749 216.779 205.468C217.268 206.186 217.512 207.048 217.512 208.053C217.512 209.117 217.21 210.093 216.607 210.984C216.032 211.846 215.199 212.536 214.107 213.053C213.015 213.57 211.737 213.829 210.272 213.829C208.232 213.829 206.508 213.326 205.1 212.32C204.956 212.263 204.856 212.177 204.798 212.062C204.769 211.947 204.741 211.76 204.712 211.501L204.281 207.235C204.252 207.12 204.31 207.048 204.453 207.019C204.626 206.99 204.741 207.033 204.798 207.148C205.2 208.815 205.99 210.237 207.168 211.415C208.375 212.564 209.711 213.139 211.177 213.139C212.182 213.139 213.044 212.852 213.762 212.277C214.51 211.674 214.883 210.754 214.883 209.519C214.883 208.197 214.452 207.12 213.59 206.286C212.728 205.453 211.478 204.606 209.841 203.744C208.691 203.112 207.772 202.566 207.082 202.106C206.421 201.617 205.861 201.028 205.401 200.339C204.942 199.649 204.712 198.816 204.712 197.839C204.712 196.201 205.344 194.923 206.608 194.003C207.872 193.084 209.41 192.624 211.22 192.624C212.685 192.624 214.122 192.955 215.53 193.616C215.788 193.759 215.946 193.874 216.004 193.96C216.09 194.046 216.147 194.176 216.176 194.348L216.435 198.098C216.435 198.213 216.348 198.284 216.176 198.313C216.032 198.342 215.946 198.299 215.917 198.184C215.774 197.466 215.443 196.733 214.926 195.986C214.438 195.21 213.806 194.564 213.03 194.046C212.254 193.529 211.392 193.271 210.444 193.271C209.41 193.271 208.605 193.587 208.03 194.219C207.456 194.851 207.168 195.655 207.168 196.632ZM226.063 193.702C224.971 193.702 224.109 193.86 223.477 194.176C222.845 194.463 222.342 194.966 221.969 195.684C221.624 196.403 221.351 197.423 221.15 198.744C221.15 198.802 221.064 198.83 220.891 198.83C220.747 198.83 220.676 198.802 220.676 198.744C220.762 198.083 220.862 197.02 220.977 195.555C221.092 194.09 221.15 192.969 221.15 192.193C221.15 192.05 221.236 191.978 221.408 191.978C221.581 191.978 221.667 192.05 221.667 192.193C221.667 192.567 221.882 192.811 222.313 192.926C222.744 193.012 223.276 193.055 223.908 193.055C226.436 193.113 228.606 193.141 230.416 193.141L234.165 193.098C234.683 193.07 235.358 193.055 236.191 193.055C237.225 193.055 237.987 192.998 238.475 192.883C238.964 192.739 239.28 192.452 239.423 192.021C239.481 191.935 239.581 191.892 239.725 191.892C239.869 191.892 239.941 191.935 239.941 192.021C239.768 195.124 239.682 197.365 239.682 198.744C239.682 198.802 239.596 198.83 239.423 198.83C239.28 198.83 239.208 198.802 239.208 198.744C239.179 197.451 239.021 196.446 238.734 195.727C238.475 195.009 238.03 194.492 237.398 194.176C236.766 193.86 235.889 193.702 234.769 193.702C233.533 193.702 232.7 193.903 232.269 194.305C231.867 194.679 231.666 195.454 231.666 196.632V209.82C231.666 210.711 231.752 211.358 231.924 211.76C232.097 212.162 232.427 212.435 232.916 212.579C233.433 212.722 234.252 212.794 235.372 212.794C235.458 212.794 235.501 212.88 235.501 213.053C235.501 213.225 235.458 213.311 235.372 213.311C234.481 213.311 233.792 213.297 233.303 213.268L230.287 213.225L227.399 213.268C226.882 213.297 226.163 213.311 225.244 213.311C225.187 213.311 225.158 213.225 225.158 213.053C225.158 212.88 225.187 212.794 225.244 212.794C226.336 212.794 227.14 212.722 227.658 212.579C228.175 212.435 228.52 212.162 228.692 211.76C228.893 211.329 228.994 210.682 228.994 209.82V196.546C228.994 195.713 228.922 195.11 228.778 194.736C228.663 194.334 228.405 194.061 228.002 193.917C227.6 193.774 226.954 193.702 226.063 193.702ZM248.204 202.623H256.048L256.35 203.399H247.515L248.204 202.623ZM264.021 212.794C264.136 212.794 264.194 212.88 264.194 213.053C264.194 213.225 264.136 213.311 264.021 213.311C263.504 213.311 262.671 213.283 261.522 213.225C260.372 213.168 259.539 213.139 259.022 213.139C258.562 213.139 257.959 213.168 257.212 213.225C256.465 213.283 255.89 213.311 255.488 213.311C255.373 213.311 255.315 213.225 255.315 213.053C255.315 212.88 255.373 212.794 255.488 212.794C256.264 212.794 256.824 212.708 257.169 212.536C257.542 212.335 257.729 212.004 257.729 211.544C257.729 211.142 257.542 210.524 257.169 209.691L250.618 195.555L251.738 194.607L246.351 208.01C245.891 209.102 245.661 210.007 245.661 210.726C245.661 211.473 245.92 212.004 246.437 212.32C246.954 212.636 247.745 212.794 248.808 212.794C248.951 212.794 249.023 212.88 249.023 213.053C249.023 213.225 248.951 213.311 248.808 213.311C248.377 213.311 247.788 213.283 247.041 213.225C246.236 213.168 245.489 213.139 244.799 213.139C244.081 213.139 243.234 213.168 242.257 213.225C241.395 213.283 240.705 213.311 240.188 213.311C240.044 213.311 239.972 213.225 239.972 213.053C239.972 212.88 240.044 212.794 240.188 212.794C241.079 212.794 241.783 212.679 242.3 212.449C242.817 212.191 243.291 211.702 243.722 210.984C244.182 210.266 244.728 209.145 245.36 207.622L251.566 192.495C251.623 192.38 251.71 192.323 251.825 192.323C251.939 192.323 252.011 192.38 252.04 192.495L258.979 207.407C259.726 209.016 260.315 210.18 260.746 210.898C261.206 211.616 261.665 212.119 262.125 212.406C262.613 212.665 263.246 212.794 264.021 212.794ZM284.356 197.365C284.356 195.928 284.126 194.952 283.666 194.434C283.207 193.917 282.316 193.659 280.994 193.659C280.908 193.659 280.865 193.572 280.865 193.4C280.865 193.228 280.908 193.141 280.994 193.141L282.718 193.185C283.58 193.242 284.27 193.271 284.787 193.271C285.189 193.271 285.793 193.242 286.597 193.185L288.235 193.141C288.292 193.141 288.321 193.228 288.321 193.4C288.321 193.572 288.292 193.659 288.235 193.659C287.085 193.659 286.295 193.917 285.864 194.434C285.462 194.952 285.261 195.928 285.261 197.365V205.381C285.261 208.053 284.514 210.137 283.02 211.631C281.526 213.125 279.515 213.872 276.986 213.872C275.377 213.872 273.912 213.556 272.59 212.924C271.268 212.263 270.22 211.329 269.444 210.122C268.668 208.915 268.28 207.479 268.28 205.812V196.632C268.28 195.77 268.194 195.138 268.022 194.736C267.878 194.334 267.576 194.061 267.117 193.917C266.686 193.745 266.01 193.659 265.091 193.659C265.005 193.659 264.962 193.572 264.962 193.4C264.962 193.228 265.005 193.141 265.091 193.141L267.03 193.185C268.065 193.242 268.884 193.271 269.487 193.271C270.205 193.271 271.11 193.242 272.202 193.185L274.055 193.141C274.142 193.141 274.185 193.228 274.185 193.4C274.185 193.572 274.142 193.659 274.055 193.659C273.136 193.659 272.446 193.745 271.987 193.917C271.527 194.09 271.211 194.391 271.039 194.822C270.895 195.225 270.823 195.857 270.823 196.719V204.692C270.823 207.364 271.484 209.346 272.806 210.639C274.156 211.904 275.88 212.536 277.977 212.536C279.96 212.536 281.511 211.932 282.632 210.726C283.781 209.49 284.356 207.737 284.356 205.468V197.365ZM300.084 212.794C300.141 212.794 300.17 212.88 300.17 213.053C300.17 213.225 300.141 213.311 300.084 213.311C299.279 213.311 298.661 213.297 298.23 213.268L295.515 213.225L292.972 213.268C292.484 213.297 291.823 213.311 290.99 213.311C290.932 213.311 290.904 213.225 290.904 213.053C290.904 212.88 290.932 212.794 290.99 212.794C291.938 212.794 292.628 212.722 293.059 212.579C293.518 212.435 293.834 212.162 294.007 211.76C294.179 211.329 294.265 210.682 294.265 209.82V196.632C294.265 195.77 294.179 195.138 294.007 194.736C293.863 194.334 293.561 194.061 293.102 193.917C292.671 193.745 291.981 193.659 291.033 193.659C290.976 193.659 290.947 193.572 290.947 193.4C290.947 193.228 290.976 193.141 291.033 193.141L293.016 193.185C294.05 193.242 294.883 193.271 295.515 193.271C296.032 193.271 296.507 193.256 296.937 193.228C297.397 193.199 297.785 193.17 298.101 193.141C299.021 193.055 299.868 193.012 300.644 193.012C302.512 193.012 303.934 193.371 304.911 194.09C305.888 194.808 306.376 195.842 306.376 197.193C306.376 198.371 306.031 199.463 305.342 200.468C304.652 201.474 303.704 202.278 302.497 202.882C301.29 203.456 299.969 203.744 298.532 203.744C297.613 203.744 296.823 203.686 296.162 203.571L296.119 202.709C296.837 202.91 297.742 203.011 298.834 203.011C300.615 203.011 301.851 202.623 302.54 201.847C303.259 201.043 303.618 199.879 303.618 198.356C303.618 195.196 302.253 193.616 299.523 193.616C298.432 193.616 297.713 193.845 297.368 194.305C297.052 194.765 296.894 195.569 296.894 196.719V209.82C296.894 210.711 296.966 211.358 297.11 211.76C297.254 212.162 297.541 212.435 297.972 212.579C298.403 212.722 299.107 212.794 300.084 212.794ZM312.884 212.794C312.941 212.794 312.97 212.88 312.97 213.053C312.97 213.225 312.941 213.311 312.884 213.311H307.841C307.324 213.311 306.39 212.421 305.04 210.639C303.69 208.858 302.081 206.416 300.213 203.313L302.497 202.408C304.164 205.137 305.557 207.235 306.678 208.7C307.798 210.165 308.833 211.214 309.781 211.846C310.758 212.478 311.792 212.794 312.884 212.794ZM321.202 202.623H329.046L329.348 203.399H320.513L321.202 202.623ZM337.019 212.794C337.134 212.794 337.192 212.88 337.192 213.053C337.192 213.225 337.134 213.311 337.019 213.311C336.502 213.311 335.669 213.283 334.519 213.225C333.37 213.168 332.537 213.139 332.02 213.139C331.56 213.139 330.957 213.168 330.21 213.225C329.463 213.283 328.888 213.311 328.486 213.311C328.371 213.311 328.313 213.225 328.313 213.053C328.313 212.88 328.371 212.794 328.486 212.794C329.261 212.794 329.822 212.708 330.167 212.536C330.54 212.335 330.727 212.004 330.727 211.544C330.727 211.142 330.54 210.524 330.167 209.691L323.616 195.555L324.736 194.607L319.349 208.01C318.889 209.102 318.659 210.007 318.659 210.726C318.659 211.473 318.918 212.004 319.435 212.32C319.952 212.636 320.742 212.794 321.805 212.794C321.949 212.794 322.021 212.88 322.021 213.053C322.021 213.225 321.949 213.311 321.805 213.311C321.374 213.311 320.785 213.283 320.038 213.225C319.234 213.168 318.487 213.139 317.797 213.139C317.079 213.139 316.231 213.168 315.255 213.225C314.393 213.283 313.703 213.311 313.186 213.311C313.042 213.311 312.97 213.225 312.97 213.053C312.97 212.88 313.042 212.794 313.186 212.794C314.077 212.794 314.78 212.679 315.298 212.449C315.815 212.191 316.289 211.702 316.72 210.984C317.18 210.266 317.726 209.145 318.358 207.622L324.564 192.495C324.621 192.38 324.707 192.323 324.822 192.323C324.937 192.323 325.009 192.38 325.038 192.495L331.977 207.407C332.724 209.016 333.313 210.18 333.744 210.898C334.203 211.616 334.663 212.119 335.123 212.406C335.611 212.665 336.243 212.794 337.019 212.794ZM341.949 194.09L342.811 194.219V208.614C342.811 210.137 343.027 211.214 343.458 211.846C343.889 212.478 344.636 212.794 345.699 212.794C345.756 212.794 345.785 212.88 345.785 213.053C345.785 213.225 345.756 213.311 345.699 213.311C345.067 213.311 344.578 213.297 344.234 213.268L342.424 213.225L340.57 213.268C340.197 213.297 339.68 213.311 339.019 213.311C338.961 213.311 338.933 213.225 338.933 213.053C338.933 212.88 338.961 212.794 339.019 212.794C340.082 212.794 340.829 212.478 341.26 211.846C341.72 211.214 341.949 210.137 341.949 208.614V194.09ZM358.025 213.786C358.025 213.843 357.953 213.886 357.81 213.915C357.666 213.944 357.565 213.929 357.508 213.872L343.372 196.675C342.452 195.584 341.648 194.808 340.958 194.348C340.297 193.888 339.651 193.659 339.019 193.659C338.961 193.659 338.933 193.572 338.933 193.4C338.933 193.228 338.961 193.141 339.019 193.141L341.432 193.185L343.716 193.141C343.918 193.141 344.076 193.199 344.191 193.314C344.334 193.429 344.535 193.673 344.794 194.046C345.024 194.42 345.34 194.865 345.742 195.383L357.594 209.993L358.025 213.786ZM358.025 213.786L357.163 212.449V197.839C357.163 196.316 356.948 195.239 356.517 194.607C356.114 193.975 355.382 193.659 354.319 193.659C354.232 193.659 354.189 193.572 354.189 193.4C354.189 193.228 354.232 193.141 354.319 193.141L355.784 193.185C356.531 193.242 357.134 193.271 357.594 193.271C358.054 193.271 358.686 193.242 359.49 193.185L360.999 193.141C361.085 193.141 361.128 193.228 361.128 193.4C361.128 193.572 361.085 193.659 360.999 193.659C359.936 193.659 359.174 193.975 358.715 194.607C358.255 195.239 358.025 196.316 358.025 197.839V213.786ZM369.365 193.702C368.273 193.702 367.411 193.86 366.779 194.176C366.147 194.463 365.644 194.966 365.271 195.684C364.926 196.403 364.653 197.423 364.452 198.744C364.452 198.802 364.366 198.83 364.193 198.83C364.049 198.83 363.978 198.802 363.978 198.744C364.064 198.083 364.164 197.02 364.279 195.555C364.394 194.09 364.452 192.969 364.452 192.193C364.452 192.05 364.538 191.978 364.71 191.978C364.883 191.978 364.969 192.05 364.969 192.193C364.969 192.567 365.184 192.811 365.615 192.926C366.046 193.012 366.578 193.055 367.21 193.055C369.738 193.113 371.908 193.141 373.718 193.141L377.467 193.098C377.985 193.07 378.66 193.055 379.493 193.055C380.527 193.055 381.289 192.998 381.777 192.883C382.266 192.739 382.582 192.452 382.725 192.021C382.783 191.935 382.883 191.892 383.027 191.892C383.171 191.892 383.243 191.935 383.243 192.021C383.07 195.124 382.984 197.365 382.984 198.744C382.984 198.802 382.898 198.83 382.725 198.83C382.582 198.83 382.51 198.802 382.51 198.744C382.481 197.451 382.323 196.446 382.036 195.727C381.777 195.009 381.332 194.492 380.7 194.176C380.068 193.86 379.191 193.702 378.071 193.702C376.835 193.702 376.002 193.903 375.571 194.305C375.169 194.679 374.968 195.454 374.968 196.632V209.82C374.968 210.711 375.054 211.358 375.226 211.76C375.399 212.162 375.729 212.435 376.218 212.579C376.735 212.722 377.554 212.794 378.674 212.794C378.76 212.794 378.803 212.88 378.803 213.053C378.803 213.225 378.76 213.311 378.674 213.311C377.784 213.311 377.094 213.297 376.605 213.268L373.589 213.225L370.701 213.268C370.184 213.297 369.466 213.311 368.546 213.311C368.489 213.311 368.46 213.225 368.46 213.053C368.46 212.88 368.489 212.794 368.546 212.794C369.638 212.794 370.442 212.722 370.96 212.579C371.477 212.435 371.822 212.162 371.994 211.76C372.195 211.329 372.296 210.682 372.296 209.82V196.546C372.296 195.713 372.224 195.11 372.08 194.736C371.965 194.334 371.707 194.061 371.304 193.917C370.902 193.774 370.256 193.702 369.365 193.702Z" fill="#621007"/>
</svg>
